<svg width="20" height="20" viewBox="0 0 20 20" fill="none" xmlns="http://www.w3.org/2000/svg">
<path d="M5.08218 15.833C3.99875 15.7264 3.18713 15.401 2.64281 14.8567C1.6665 13.8804 1.6665 12.309 1.6665 9.16634V8.74967C1.6665 5.60698 1.6665 4.03563 2.64281 3.05932C3.61913 2.08301 5.19047 2.08301 8.33317 2.08301H11.6665C14.8092 2.08301 16.3805 2.08301 17.3569 3.05932C18.3332 4.03563 18.3332 5.60698 18.3332 8.74967V9.16634C18.3332 12.309 18.3332 13.8804 17.3569 14.8567C16.3805 15.833 14.8092 15.833 11.6665 15.833C11.1994 15.8434 10.8275 15.879 10.462 15.9622C9.46336 16.1921 8.53861 16.7031 7.62473 17.1487C6.32258 17.7837 5.6715 18.1012 5.26292 17.8039C4.48125 17.2218 5.24529 15.4179 5.4165 14.583" stroke="#1DBE5B" stroke-width="1.5" stroke-linecap="round"/>
</svg>
